<?xml version="1.0" standalone="no"?>
<!DOCTYPE svg PUBLIC "-//W3C//DTD SVG 20010904//EN"
 "http://www.w3.org/TR/2001/REC-SVG-20010904/DTD/svg10.dtd">
<svg version="1.0" xmlns="http://www.w3.org/2000/svg"
 width="542.000000pt" height="461.000000pt" viewBox="0 0 542.000000 461.000000"
 preserveAspectRatio="xMidYMid meet">

<g transform="translate(0.000000,461.000000) scale(0.100000,-0.100000)"
fill="#000000" stroke="none">
<path d="M455 4474 c-36 -76 -65 -138 -65 -140 0 -2 -11 -27 -24 -56 -37 -81
-99 -242 -139 -358 -141 -414 -191 -703 -190 -1095 2 -522 89 -918 292 -1325
135 -270 264 -452 479 -672 438 -448 918 -686 1607 -800 144 -23 436 -36 470
-19 11 5 52 15 90 21 237 38 545 129 750 222 876 397 1441 1144 1597 2108 21
131 23 177 23 470 0 286 -3 344 -23 485 -58 402 -157 719 -350 1118 l-85 177
-189 0 c-103 0 -188 -2 -188 -5 0 -3 36 -78 81 -166 242 -485 349 -805 409
-1233 41 -287 21 -687 -49 -991 -141 -617 -511 -1141 -1056 -1497 -342 -224
-680 -339 -1110 -378 -117 -11 -147 -10 -298 9 -333 42 -544 104 -810 238
-214 107 -397 241 -588 432 -369 369 -608 836 -699 1366 -18 106 -31 386 -25
525 12 259 33 399 99 653 61 234 164 491 362 906 35 73 64 135 64 137 0 2 -83
4 -185 4 l-185 0 -65 -136z"/>
</g>
</svg>
